{"glyphs":{":":{"x_min":0,"x_max":301,"ha":301,"o":"m 69 411 l 69 574 l 234 574 l 234 411 z m 69 44 l 69 208 l 234 208 l 234 44 z"},"$":{"x_min":0,"x_max":483,"ha":483,"o":"m 228 -119 l 228 -12 q 122 -6 71 55 q 20 116 17 250 l 185 272 q 185 232 189 205 q 193 177 202 163 q 210 148 219 143 q 229 137 242 137 q 275 137 275 185 q 275 231 254 265 q 232 299 186 339 l 135 382 q 106 407 89 425 q 71 443 53 470 q 34 498 25 530 q 17 563 17 603 q 17 699 72 755 q 127 812 223 820 l 223 923 l 279 923 l 279 821 q 314 819 342 809 q 369 798 387 784 q 405 770 418 748 q 432 727 438 708 q 445 689 449 664 q 454 640 455 623 q 456 606 456 586 l 283 569 q 283 591 283 602 q 283 613 282 628 q 281 644 279 651 q 276 658 272 666 q 269 673 262 676 q 256 679 248 679 q 229 679 220 660 q 210 642 210 623 q 210 612 212 603 q 214 593 215 585 q 217 578 222 569 q 227 560 229 554 q 231 549 239 540 q 246 531 249 528 q 251 524 260 516 q 270 507 271 505 q 273 503 284 494 q 295 484 296 483 l 343 442 q 373 415 393 392 q 414 368 433 338 q 452 307 462 271 q 471 235 471 194 q 471 113 420 56 q 369 -2 283 -11 l 283 -119 z"},"?":{"x_min":0,"x_max":483,"ha":483,"o":"m 115 0 l 115 168 l 289 168 l 289 0 z m 120 216 l 120 346 q 191 403 235 478 q 273 543 273 608 q 273 617 272 627 q 270 654 258 662 q 247 670 229 670 q 214 670 203 658 q 192 647 192 627 q 192 616 193 608 q 194 601 195 597 q 196 593 199 584 q 203 575 205 569 l 44 531 q 42 538 39 551 q 35 564 34 569 q 33 574 31 583 q 29 593 28 599 q 28 605 27 615 q 26 624 26 633 q 26 635 26 637 q 26 675 35 706 q 45 738 67 766 q 88 793 128 809 q 168 824 224 824 q 333 824 392 770 q 450 716 450 619 q 450 532 401 443 q 352 354 283 314 l 283 216 z"},"<":{"x_min":0,"x_max":405,"ha":405,"o":"m 348 119 l 32 340 l 32 471 l 348 692 l 348 541 l 159 406 l 348 270 z"},"'":{"x_min":0,"x_max":184,"ha":184,"o":"m 29 494 l 29 810 l 173 810 l 114 494 z"},"=":{"x_min":0,"x_max":451,"ha":451,"o":"m 65 431 l 65 535 l 386 535 l 386 431 z m 65 238 l 65 342 l 386 342 l 386 238 z"},"a":{"x_min":0,"x_max":491,"ha":491,"o":"m 236 105 q 258 105 275 128 l 275 285 q 237 268 215 231 q 193 194 193 164 q 193 137 206 121 q 218 105 236 105 z m 174 -11 q 140 -10 113 3 q 85 16 69 36 q 52 57 43 82 q 34 106 34 132 q 34 161 41 186 q 48 210 60 229 q 71 247 89 264 q 107 280 124 291 q 140 302 163 313 q 186 324 202 330 q 219 336 241 344 q 264 353 275 357 l 275 420 q 275 456 248 456 q 232 456 227 447 q 221 437 219 420 l 214 374 l 49 381 l 50 390 q 50 398 50 399 q 58 496 112 542 q 165 589 265 589 q 351 589 398 541 q 445 493 445 417 l 445 146 q 445 119 446 93 q 448 66 449 54 q 450 42 452 21 q 455 0 455 0 l 296 0 q 284 79 283 81 q 271 41 244 15 q 216 -11 174 -11 z"},"L":{"x_min":0,"x_max":456,"ha":456,"o":"m 59 0 l 59 810 l 257 810 l 257 132 l 437 132 l 437 0 z"},"3":{"x_min":0,"x_max":547,"ha":547,"o":"m 282 -17 q 229 -17 188 -4 q 148 9 122 32 q 96 54 80 89 q 64 123 58 162 q 51 201 51 251 l 51 280 l 236 280 l 236 248 q 236 186 246 162 q 257 139 285 139 q 311 139 319 160 q 328 182 328 235 q 328 298 312 325 q 296 351 249 352 l 214 352 l 214 469 l 245 469 q 294 469 311 496 q 328 523 328 587 q 328 633 317 655 q 306 677 279 677 q 254 677 245 654 q 236 631 236 586 l 236 537 l 51 537 l 51 592 q 51 704 112 764 q 172 824 279 824 q 388 824 449 767 q 510 710 510 601 q 510 532 482 483 q 455 433 416 423 q 436 415 452 402 q 468 389 482 368 q 495 348 502 315 q 510 283 510 241 q 510 183 497 137 q 485 91 458 56 q 432 21 387 2 q 343 -17 282 -17 z"},";":{"x_min":0,"x_max":305,"ha":305,"o":"m 69 415 l 69 578 l 235 578 l 235 415 z m 96 -138 l 88 -84 q 104 -81 115 -76 q 126 -71 138 -62 q 150 -52 157 -36 q 163 -20 163 2 l 70 2 l 70 167 l 236 167 l 236 28 q 236 -53 201 -95 q 166 -138 96 -138 z"},"J":{"x_min":0,"x_max":363,"ha":363,"o":"m 15 -21 l 15 116 q 18 116 21 116 q 67 116 86 129 q 105 143 106 186 l 106 810 l 304 810 l 304 177 q 303 126 293 91 q 284 56 262 30 q 241 3 204 -9 q 167 -21 111 -21 z"},"V":{"x_min":0,"x_max":532,"ha":532,"o":"m 158 0 l 22 810 l 188 810 l 264 274 l 333 810 l 512 810 l 373 0 z"},"\"":{"x_min":0,"x_max":347,"ha":347,"o":"m 207 494 l 207 810 l 358 810 l 286 494 z m 9 494 l 9 810 l 160 810 l 88 494 z"},"7":{"x_min":0,"x_max":543,"ha":543,"o":"m 116 0 l 301 671 l 79 671 l 79 810 l 480 810 l 480 677 l 296 0 z"},"S":{"x_min":0,"x_max":526,"ha":526,"o":"m 281 -13 q 161 -13 104 48 q 47 108 43 250 l 211 272 q 211 232 216 205 q 220 177 229 163 q 237 148 246 143 q 256 137 269 137 q 302 137 302 185 q 302 231 281 265 q 259 299 212 339 l 161 382 q 133 406 115 425 q 98 443 79 470 q 61 498 52 530 q 43 563 43 603 q 43 708 107 765 q 170 822 281 822 q 480 822 482 586 l 310 569 q 310 601 309 616 q 309 632 305 649 q 302 666 294 673 q 287 679 274 679 q 256 679 247 660 q 237 642 237 623 q 237 612 239 603 q 241 593 242 585 q 244 578 249 569 q 253 560 256 554 q 258 549 266 540 q 273 531 275 528 q 278 524 287 516 q 296 507 298 505 q 300 503 311 494 q 322 484 323 483 l 370 442 q 399 415 420 392 q 441 368 460 338 q 479 307 489 271 q 498 235 498 194 q 498 106 438 47 q 378 -13 281 -13 z"},"}":{"x_min":0,"x_max":396,"ha":396,"o":"m 35 -193 l 35 -76 q 63 -76 78 -73 q 93 -69 103 -57 q 113 -44 116 -23 q 119 -2 119 36 l 119 107 q 119 154 122 188 q 126 221 136 249 q 146 278 164 295 q 183 312 211 318 q 183 325 164 342 q 146 359 136 388 q 126 417 122 449 q 119 482 119 530 l 119 601 q 119 639 116 660 q 113 681 103 694 q 93 707 78 710 q 63 713 35 713 l 35 831 q 77 831 109 828 q 142 825 167 818 q 192 811 210 802 q 229 793 241 778 q 253 764 261 749 q 269 733 273 710 q 277 688 278 666 q 280 644 280 612 l 280 550 q 280 433 289 408 q 298 383 347 383 l 347 253 q 298 253 289 229 q 280 204 280 86 l 280 24 q 280 0 279 -19 q 278 -37 276 -57 q 273 -76 269 -90 q 265 -104 258 -118 q 251 -132 241 -142 q 231 -151 217 -160 q 204 -169 186 -175 q 168 -181 146 -185 q 124 -189 96 -191 q 68 -193 35 -193 z"},"Z":{"x_min":0,"x_max":437,"ha":437,"o":"m 27 0 l 27 116 l 213 677 l 34 677 l 34 810 l 405 810 l 405 694 l 218 132 l 408 132 l 408 0 z"},"x":{"x_min":0,"x_max":458,"ha":458,"o":"m 11 0 l 132 321 l 19 578 l 200 578 l 256 452 l 305 578 l 436 578 l 327 293 l 457 0 l 273 0 l 208 148 l 156 0 z"},")":{"x_min":0,"x_max":348,"ha":348,"o":"m 37 -174 l 37 -47 q 69 -47 89 -11 q 108 24 117 104 q 126 183 126 318 q 126 521 107 607 q 88 693 37 693 l 37 819 q 74 819 106 812 q 137 804 161 790 q 185 776 204 753 q 223 730 237 705 q 250 680 260 645 q 270 609 276 575 q 281 541 285 496 q 288 451 289 410 q 291 370 291 318 q 291 256 289 208 q 287 160 280 106 q 274 53 263 14 q 252 -25 233 -63 q 213 -100 187 -123 q 161 -146 123 -160 q 86 -174 40 -174 q 38 -174 37 -174 z"},"&":{"x_min":0,"x_max":559,"ha":559,"o":"m 242 503 q 244 508 254 532 q 264 557 271 575 q 278 593 284 616 q 291 640 291 655 q 291 676 278 688 q 266 701 249 701 q 231 701 219 688 q 208 675 208 652 q 208 626 224 566 q 241 506 242 503 z m 226 102 q 239 102 248 103 q 257 104 269 111 q 281 117 290 130 q 219 292 208 319 q 169 251 169 194 q 169 152 188 127 q 206 102 226 102 z m 223 -14 q 141 -14 87 40 q 34 94 34 179 q 34 247 67 318 q 100 390 147 438 q 138 458 121 491 q 103 525 94 544 q 84 563 76 591 q 68 618 68 642 q 68 718 115 771 q 162 823 240 823 q 319 823 371 775 q 423 726 423 645 q 423 617 416 591 q 410 565 401 547 q 392 528 376 506 q 361 485 349 472 q 338 459 319 439 q 299 419 290 409 l 377 235 q 389 254 396 308 q 404 361 404 406 l 515 406 q 515 314 502 257 q 489 199 459 139 q 468 127 486 119 q 503 110 521 108 l 521 -12 q 498 -17 489 -17 q 468 -17 446 -6 q 423 5 408 17 q 393 28 373 46 q 369 50 367 52 q 341 20 303 3 q 265 -14 223 -14 z"},"_":{"x_min":0,"x_max":375,"ha":375,"o":"m 0 -176 l 0 -59 l 375 -59 l 375 -176 z"},"v":{"x_min":0,"x_max":432,"ha":432,"o":"m 125 0 l 9 578 l 179 578 l 220 237 l 256 578 l 427 578 l 305 0 z"},"O":{"x_min":0,"x_max":599,"ha":599,"o":"m 49 255 l 49 554 q 49 620 62 668 q 74 716 103 751 q 132 787 181 804 q 229 822 299 822 q 368 822 417 804 q 466 787 495 751 q 524 716 537 668 q 550 620 550 554 l 550 255 q 550 190 537 142 q 524 94 495 58 q 466 23 417 5 q 368 -13 299 -13 q 229 -13 181 5 q 132 23 103 58 q 74 94 62 142 q 49 190 49 255 z m 299 125 q 315 125 325 132 q 335 139 340 152 q 344 166 345 177 q 347 188 347 205 l 347 605 q 347 622 345 633 q 344 644 340 657 q 335 671 325 678 q 315 685 299 685 q 286 685 276 680 q 267 674 262 667 q 258 660 255 648 q 253 635 253 627 q 252 619 252 605 l 252 205 q 252 191 253 183 q 253 175 255 162 q 258 150 262 143 q 267 136 276 130 q 286 125 299 125 z"},"(":{"x_min":0,"x_max":350,"ha":350,"o":"m 313 -174 q 312 -174 310 -174 q 264 -174 227 -160 q 189 -146 163 -123 q 136 -100 117 -63 q 98 -25 87 14 q 76 53 69 106 q 63 160 61 208 q 59 256 59 318 q 59 370 60 410 q 62 451 65 496 q 68 541 74 575 q 80 609 90 644 q 100 679 113 705 q 126 730 146 753 q 165 776 188 790 q 212 804 244 812 q 275 819 313 819 l 313 693 q 262 693 242 607 q 223 521 223 318 q 223 183 232 104 q 241 24 261 -11 q 280 -47 313 -47 z"},"C":{"x_min":0,"x_max":577,"ha":577,"o":"m 299 -13 q 230 -13 181 6 q 132 24 103 60 q 75 96 62 145 q 49 193 49 258 l 49 551 q 49 617 62 665 q 75 713 103 750 q 132 786 181 804 q 230 822 299 822 q 354 822 396 811 q 438 799 466 779 q 493 759 510 729 q 527 699 534 665 q 541 630 541 588 l 541 516 l 346 516 l 346 604 q 346 622 345 633 q 344 643 340 657 q 336 671 326 678 q 315 685 299 685 q 286 685 277 680 q 267 674 262 667 q 257 660 255 647 q 252 635 251 626 q 250 617 250 604 l 250 206 q 250 193 251 183 q 252 174 255 162 q 258 150 263 142 q 268 135 277 130 q 287 125 299 125 q 315 125 326 132 q 336 139 340 153 q 344 167 345 177 q 346 188 346 206 l 346 298 l 541 298 l 541 226 q 541 184 534 149 q 527 115 510 84 q 493 53 466 32 q 438 12 396 0 q 354 -13 299 -13 z"},"W":{"x_min":0,"x_max":688,"ha":688,"o":"m 112 0 l 25 810 l 193 810 l 230 370 l 277 810 l 407 810 l 458 375 l 497 810 l 663 810 l 576 0 l 398 0 l 342 457 l 291 0 z"},"A":{"x_min":0,"x_max":568,"ha":568,"o":"m 250 276 l 322 276 l 286 578 z m 22 0 l 169 810 l 400 810 l 545 0 l 364 0 l 339 162 l 234 162 l 209 0 z"},"f":{"x_min":0,"x_max":330,"ha":330,"o":"m 67 0 l 67 459 l 16 459 l 16 578 l 67 578 l 67 625 q 67 658 71 681 q 74 704 84 727 q 94 750 112 763 q 129 776 160 785 q 191 793 235 793 q 272 793 315 788 l 315 655 q 289 660 282 660 q 246 660 246 624 l 246 578 l 315 578 l 315 459 l 246 459 l 246 0 z"},"Q":{"x_min":0,"x_max":599,"ha":599,"o":"m 299 125 q 315 125 325 132 q 335 139 340 152 q 344 166 345 177 q 347 188 347 205 l 347 605 q 347 622 345 633 q 344 644 340 657 q 335 671 325 678 q 315 685 299 685 q 286 685 276 680 q 267 674 262 667 q 258 660 255 648 q 253 635 253 627 q 252 619 252 605 l 252 205 q 252 191 253 183 q 253 175 255 162 q 258 150 262 143 q 267 136 276 130 q 286 125 299 125 z m 487 -158 q 451 -144 398 -101 q 345 -59 315 -12 q 312 -12 307 -12 q 302 -13 299 -13 q 229 -13 181 5 q 132 23 103 58 q 74 94 62 142 q 49 190 49 255 l 49 554 q 49 620 62 668 q 74 716 103 751 q 132 787 181 804 q 229 822 299 822 q 368 822 417 804 q 466 787 495 751 q 524 716 537 668 q 550 620 550 554 l 550 255 q 550 77 447 20 q 494 -29 530 -47 z"},"w":{"x_min":0,"x_max":600,"ha":600,"o":"m 102 0 l 19 578 l 169 578 l 206 278 l 242 578 l 370 578 l 398 268 l 443 578 l 581 578 l 497 0 l 343 0 l 302 301 l 252 0 z"},"-":{"x_min":0,"x_max":405,"ha":405,"o":"m 68 310 l 68 421 l 338 421 l 338 310 z"},"E":{"x_min":0,"x_max":459,"ha":459,"o":"m 59 0 l 59 810 l 438 810 l 438 677 l 257 677 l 257 496 l 392 496 l 392 358 l 257 358 l 257 132 l 439 132 l 439 0 z"},"s":{"x_min":0,"x_max":438,"ha":438,"o":"m 231 -11 q 156 -11 105 21 q 55 53 18 129 l 136 185 q 156 148 180 127 q 201 108 221 107 q 224 107 226 108 q 238 109 246 118 q 254 127 253 140 q 253 147 248 155 q 243 163 232 173 q 222 184 212 191 q 203 199 188 212 q 172 225 164 231 l 139 252 q 93 291 62 336 q 31 381 31 424 q 31 494 87 541 q 143 589 218 589 q 291 589 341 552 q 392 514 415 441 l 300 386 q 290 414 270 438 q 250 463 229 465 q 212 466 203 458 q 194 450 193 439 q 193 431 197 422 q 202 413 214 401 q 226 389 234 381 q 243 373 262 357 q 281 341 289 334 l 312 315 q 314 313 318 310 q 338 292 349 283 q 359 273 376 255 q 393 237 401 223 q 410 209 416 189 q 423 169 423 149 q 423 112 406 81 q 390 50 363 31 q 335 11 301 0 q 267 -11 231 -11 z"},">":{"x_min":0,"x_max":405,"ha":405,"o":"m 53 119 l 53 270 l 243 406 l 53 541 l 53 692 l 370 471 l 370 340 z"},"l":{"x_min":0,"x_max":287,"ha":287,"o":"m 56 0 l 56 810 l 234 810 l 234 0 z"},"8":{"x_min":0,"x_max":548,"ha":548,"o":"m 273 489 q 313 489 313 605 q 313 644 303 664 q 292 685 273 685 q 253 685 242 664 q 231 644 231 606 q 231 489 273 489 z m 273 120 q 282 120 289 123 q 296 125 301 132 q 305 139 309 145 q 312 151 314 162 q 316 172 317 179 q 318 186 319 198 q 319 209 319 214 q 319 218 319 229 q 320 243 319 258 q 319 272 318 285 q 317 298 314 310 q 311 321 306 330 q 302 338 293 343 q 285 348 273 348 q 262 348 254 344 q 246 339 241 330 q 236 320 233 312 q 230 303 229 287 q 228 271 228 261 q 228 251 228 232 q 228 230 228 229 q 228 217 228 211 q 228 205 229 192 q 229 179 231 171 q 232 163 236 152 q 239 141 244 135 q 249 128 256 124 q 264 120 273 120 z m 273 -14 q 211 -14 166 5 q 121 24 95 59 q 69 95 57 141 q 45 184 45 237 q 45 241 45 245 q 47 306 69 355 q 91 405 137 426 q 104 450 83 494 q 61 538 59 601 q 59 606 59 611 q 59 708 112 764 q 168 822 273 822 q 378 822 434 764 q 486 708 486 611 q 486 605 486 601 q 484 537 463 493 q 441 448 410 426 q 455 405 478 355 q 500 305 502 245 q 502 238 502 232 q 502 182 492 141 q 480 95 454 59 q 427 24 382 5 q 336 -14 273 -14 z"},"\\":{"x_min":0,"x_max":438,"ha":438,"o":"m 305 0 l 47 810 l 134 810 l 390 0 z"},"e":{"x_min":0,"x_max":484,"ha":484,"o":"m 215 358 l 284 358 l 284 417 q 284 462 247 462 q 215 462 215 412 z m 38 172 l 38 406 q 38 491 96 540 q 154 589 247 589 q 341 589 395 544 q 448 499 448 413 l 448 277 l 215 277 l 215 167 q 215 140 224 128 q 233 116 247 116 q 284 116 284 161 l 284 207 l 448 207 l 448 163 q 448 78 394 33 q 340 -11 247 -11 q 154 -11 96 38 q 38 87 38 172 z"},"b":{"x_min":0,"x_max":523,"ha":523,"o":"m 265 101 q 282 100 292 111 q 302 123 302 140 l 302 448 q 302 466 292 477 q 282 489 265 487 q 250 484 229 470 l 229 113 q 250 101 265 101 z m 360 -11 q 295 -11 229 44 l 229 0 l 50 0 l 50 810 l 229 810 l 229 537 q 262 564 296 577 q 327 589 354 589 q 357 589 360 589 q 419 586 450 547 q 481 507 481 432 l 481 151 q 481 75 448 32 q 415 -11 360 -11 z"},"%":{"x_min":0,"x_max":1039,"ha":1039,"o":"m 345 0 l 601 810 l 691 810 l 435 0 z m 593 223 l 593 251 q 593 369 637 419 q 681 469 791 469 q 900 469 946 419 q 991 369 991 252 l 991 223 q 991 107 945 53 q 898 0 791 0 q 684 0 638 53 q 593 106 593 223 z m 845 231 l 845 244 q 845 245 845 246 q 845 264 845 272 q 845 280 844 293 q 844 306 843 311 q 842 317 840 326 q 838 334 835 338 q 833 341 829 346 q 825 351 819 353 q 814 354 807 355 q 800 357 791 357 q 778 357 769 355 q 759 353 753 346 q 747 339 744 332 q 741 326 739 310 q 737 294 737 282 q 737 270 737 245 l 737 231 q 737 208 737 194 q 738 180 740 164 q 741 148 745 140 q 748 132 754 124 q 760 117 769 114 q 778 111 791 111 q 804 111 813 114 q 822 117 828 125 q 834 132 837 140 q 841 148 842 164 q 844 180 844 194 q 845 208 845 231 z m 246 341 q 139 341 93 394 q 48 448 48 564 l 48 592 q 48 710 92 760 q 136 810 246 810 q 356 810 401 760 q 446 710 446 593 l 446 563 q 446 448 400 394 q 354 341 246 341 z m 300 573 l 300 585 q 300 611 300 623 q 300 634 298 650 q 297 667 294 673 q 291 679 284 686 q 278 693 269 696 q 260 698 246 698 q 233 698 224 696 q 214 693 208 687 q 203 680 199 673 q 196 667 194 651 q 193 635 193 623 q 192 611 192 586 l 192 572 q 192 548 193 535 q 193 521 195 505 q 196 489 200 481 q 203 473 209 465 q 215 458 224 455 q 233 452 246 452 q 259 452 268 455 q 277 458 283 465 q 289 473 292 481 q 296 489 298 505 q 299 521 300 535 q 300 549 300 573 z"},"m":{"x_min":0,"x_max":774,"ha":774,"o":"m 50 0 l 50 578 l 228 578 l 228 534 q 285 589 365 589 q 400 589 426 571 q 452 554 465 522 q 526 589 614 589 q 667 589 697 551 q 728 512 728 448 l 728 0 l 550 0 l 550 428 q 550 465 523 465 q 522 465 521 465 q 499 464 478 452 l 478 448 l 478 0 l 302 0 l 302 428 q 302 465 274 465 q 273 465 271 465 q 251 464 228 451 l 228 0 z"},"#":{"x_min":0,"x_max":548,"ha":548,"o":"m 228 370 l 304 370 l 318 492 l 243 492 z m 82 0 l 110 263 l 51 263 l 55 370 l 125 370 l 138 492 l 56 492 l 59 602 l 159 602 l 180 810 l 285 810 l 263 602 l 337 602 l 359 810 l 463 810 l 441 602 l 497 602 l 493 492 l 421 492 l 408 370 l 492 370 l 488 263 l 393 263 l 363 0 l 260 0 l 289 263 l 214 263 l 185 0 z"},",":{"x_min":0,"x_max":253,"ha":253,"o":"m 71 -142 l 63 -88 q 96 -81 117 -61 q 138 -42 138 0 l 44 0 l 44 165 l 211 165 l 211 26 q 210 -55 175 -98 q 140 -141 71 -142 z"},"n":{"x_min":0,"x_max":527,"ha":527,"o":"m 50 0 l 50 578 l 229 578 l 229 520 q 298 589 368 589 q 421 589 451 551 q 481 512 481 449 l 481 0 l 302 0 l 302 428 q 302 447 296 456 q 290 465 274 464 q 253 462 229 448 l 229 0 z"},"h":{"x_min":0,"x_max":528,"ha":528,"o":"m 50 0 l 50 810 l 229 810 l 229 529 q 288 589 369 589 q 421 589 451 551 q 481 512 481 449 l 481 0 l 303 0 l 303 428 q 303 447 296 456 q 290 465 274 464 q 253 462 229 448 l 229 0 z"},"z":{"x_min":0,"x_max":405,"ha":405,"o":"m 36 0 l 36 115 l 190 448 l 46 448 l 46 578 l 375 578 l 375 467 l 220 130 l 379 130 l 379 0 z"},"B":{"x_min":0,"x_max":607,"ha":607,"o":"m 257 490 l 283 490 q 337 490 355 514 q 374 539 374 589 q 374 628 351 654 q 328 679 290 679 l 257 679 z m 257 138 l 284 138 q 337 138 360 165 q 382 192 382 247 q 382 312 361 338 q 339 363 285 363 l 257 363 z m 59 0 l 59 810 l 278 810 q 310 810 336 808 q 362 806 391 801 q 420 795 442 786 q 464 776 485 760 q 506 744 520 722 q 532 699 540 667 q 547 639 547 604 q 547 600 547 595 q 544 458 428 435 q 497 428 534 379 q 572 329 573 243 q 573 240 573 236 q 573 114 509 58 q 442 0 318 0 z"},"K":{"x_min":0,"x_max":588,"ha":588,"o":"m 59 0 l 59 810 l 257 810 l 257 494 l 379 810 l 574 810 l 427 442 l 576 0 l 373 0 l 267 351 l 257 338 l 257 0 z"},"R":{"x_min":0,"x_max":624,"ha":624,"o":"m 257 467 l 309 467 q 357 467 376 495 q 395 523 395 575 q 395 625 377 652 q 359 679 318 679 l 257 679 z m 59 0 l 59 810 l 300 810 q 352 810 392 804 q 432 799 468 785 q 504 771 528 747 q 551 723 564 685 q 578 647 578 596 q 578 515 558 466 q 537 418 479 388 l 589 0 l 382 0 l 298 358 l 257 358 l 257 0 z"},"T":{"x_min":0,"x_max":460,"ha":460,"o":"m 131 0 l 131 663 l 13 663 l 13 810 l 447 810 l 447 663 l 330 663 l 330 0 z"},"P":{"x_min":0,"x_max":597,"ha":597,"o":"m 257 472 l 320 472 q 360 472 372 496 q 383 520 383 576 q 383 592 382 604 q 381 615 378 628 q 374 642 367 651 q 360 659 348 665 q 335 671 318 671 l 257 671 z m 59 0 l 59 810 l 352 810 q 459 810 514 749 q 569 688 569 572 q 569 512 555 469 q 542 425 521 400 q 500 375 466 359 q 433 344 400 339 q 367 334 324 334 l 257 334 l 257 0 z"},"|":{"x_min":0,"x_max":269,"ha":269,"o":"m 62 -189 l 63 810 l 206 810 l 206 -189 z"},"t":{"x_min":0,"x_max":367,"ha":367,"o":"m 216 -6 q 187 -5 164 3 q 140 10 124 22 q 108 34 97 52 q 86 70 79 88 q 73 106 69 131 q 65 156 64 177 q 63 197 63 225 l 63 461 l 9 461 l 9 578 l 63 578 l 63 756 l 245 756 l 245 578 l 324 578 l 324 461 l 245 461 l 245 184 q 245 163 259 153 q 274 143 296 141 q 306 141 317 142 q 329 143 334 144 q 340 146 341 146 l 341 3 q 290 -7 240 -7 q 228 -7 216 -6 z"},"M":{"x_min":0,"x_max":717,"ha":717,"o":"m 56 0 l 69 810 l 285 810 l 358 393 l 440 810 l 647 810 l 661 0 l 523 0 l 507 525 l 425 0 l 298 0 l 209 530 l 196 0 z"},"g":{"x_min":0,"x_max":520,"ha":520,"o":"m 260 283 q 285 283 292 304 q 299 326 299 384 q 299 445 292 465 q 286 485 260 485 q 250 485 244 483 q 238 480 234 474 q 230 467 228 461 q 226 455 225 442 q 224 428 223 419 q 223 411 223 391 q 223 387 223 384 q 223 328 230 305 q 237 283 260 283 z m 278 -67 q 317 -67 335 -60 q 354 -53 356 -36 q 357 -30 357 -25 q 357 -9 348 0 q 335 11 300 16 l 216 28 q 196 -4 196 -25 q 196 -67 278 -67 z m 279 -172 q 26 -172 26 -55 q 26 -40 34 -24 q 41 -8 55 7 q 69 21 80 31 q 92 42 109 55 q 70 70 53 85 q 35 100 31 120 q 29 128 29 137 q 29 146 31 154 q 35 171 47 186 q 60 201 72 212 q 84 224 104 239 q 42 284 42 374 q 42 483 98 536 q 155 589 256 589 q 298 589 335 577 q 372 564 392 542 q 432 587 471 609 l 494 620 l 535 539 q 521 535 491 520 q 461 504 438 491 q 471 451 471 376 q 471 283 420 231 q 370 180 271 180 q 213 180 166 200 q 147 177 147 163 q 147 161 147 159 q 151 147 203 138 q 216 136 340 119 q 430 105 464 73 q 498 41 498 -20 q 498 -172 279 -172 z"},"j":{"x_min":0,"x_max":290,"ha":290,"o":"m 62 679 l 62 793 l 242 793 l 242 679 z m -6 -175 l -6 -47 q 16 -51 23 -51 q 62 -51 62 -8 l 62 578 l 242 578 l 242 -31 q 242 -102 203 -146 q 164 -190 90 -190 q 47 -190 -6 -175 z"},"i":{"x_min":0,"x_max":276,"ha":276,"o":"m 48 679 l 48 793 l 229 793 l 229 679 z m 49 0 l 49 578 l 229 578 l 229 0 z"},"y":{"x_min":0,"x_max":464,"ha":464,"o":"m 73 -175 l 73 -53 q 97 -53 111 -52 q 125 -50 139 -45 q 152 -40 157 -30 q 163 -19 163 -2 q 163 19 142 93 q 140 100 70 337 q 1 574 0 578 l 167 578 l 238 272 l 287 578 l 454 578 l 318 -32 q 309 -73 287 -103 q 265 -132 234 -147 q 204 -163 171 -169 q 140 -175 104 -175 q 102 -175 99 -175 z"},"@":{"x_min":0,"x_max":963,"ha":963,"o":"m 480 226 l 487 226 q 493 226 500 226 q 508 226 515 227 q 523 229 526 232 l 556 468 q 557 477 546 481 q 535 485 526 485 q 498 485 475 469 q 453 454 440 429 q 428 404 421 377 q 415 351 415 323 q 415 322 415 321 q 415 279 430 253 q 445 226 480 226 z m 473 -124 q 354 -124 267 -89 q 179 -54 128 11 q 77 76 59 167 q 49 215 49 269 q 49 317 57 371 q 70 465 109 545 q 148 625 209 684 q 271 743 359 777 q 447 810 552 810 q 660 810 739 778 q 818 746 865 688 q 911 629 928 549 q 939 501 939 447 q 939 411 934 372 q 931 348 925 323 q 919 297 908 270 q 897 243 883 219 q 868 195 847 173 q 827 150 802 135 q 777 119 745 109 q 713 100 676 100 q 631 100 592 117 q 552 134 538 169 q 525 145 498 129 q 472 113 442 110 q 434 109 425 109 q 379 109 343 133 q 301 160 280 211 q 263 254 263 306 q 263 315 263 324 q 265 358 273 395 q 280 432 298 472 q 315 513 339 544 q 363 575 402 595 q 440 615 487 615 q 541 615 563 538 q 563 537 564 536 q 564 536 564 535 q 564 534 564 533 l 574 610 l 719 610 l 680 295 q 680 294 679 287 q 678 280 677 276 q 677 272 676 264 q 675 256 675 250 q 675 245 675 237 q 674 229 675 224 q 676 219 677 214 q 679 208 681 205 q 683 202 687 201 q 694 198 702 198 q 731 198 763 239 q 803 292 813 373 q 818 412 818 446 q 818 482 812 514 q 802 574 770 619 q 738 663 680 686 q 622 709 539 709 q 470 709 413 690 q 357 672 318 641 q 279 610 250 566 q 221 522 205 474 q 189 427 181 372 q 172 312 172 260 q 172 250 173 240 q 175 180 195 131 q 216 83 253 49 q 290 16 349 -2 q 409 -21 490 -21 q 529 -21 590 -10 q 652 0 693 14 l 711 -92 q 567 -124 473 -124 z"},".":{"x_min":0,"x_max":260,"ha":260,"o":"m 45 0 l 45 164 l 213 164 l 213 0 z"},"p":{"x_min":0,"x_max":522,"ha":522,"o":"m 263 101 q 280 100 290 111 q 301 123 301 140 l 301 448 q 301 465 290 477 q 279 489 263 487 q 250 485 229 470 l 229 112 q 249 101 263 101 z m 50 -190 l 50 578 l 229 578 l 229 537 q 291 589 354 589 q 356 589 359 589 q 418 586 449 547 q 480 507 480 432 l 480 151 q 480 75 447 32 q 414 -11 359 -11 q 294 -11 229 44 l 229 -190 z"},"X":{"x_min":0,"x_max":524,"ha":524,"o":"m 5 0 l 159 440 l 13 810 l 201 810 l 280 610 l 340 810 l 502 810 l 369 382 l 520 0 l 334 0 l 245 224 l 166 0 z"},"*":{"x_min":0,"x_max":430,"ha":430,"o":"m 177 445 l 72 507 l 142 606 l 38 646 l 77 751 l 170 700 l 157 810 l 290 810 l 278 699 l 371 752 l 410 645 l 305 605 l 376 507 l 270 445 l 223 545 z"},"Y":{"x_min":0,"x_max":497,"ha":497,"o":"m 155 0 l 155 344 l 7 810 l 194 810 l 258 593 l 311 810 l 490 810 l 345 344 l 345 0 z"},"c":{"x_min":0,"x_max":485,"ha":485,"o":"m 247 -11 q 154 -11 96 38 q 38 87 38 172 l 38 407 q 38 492 96 541 q 153 589 247 589 q 341 589 397 545 q 453 501 453 417 l 453 348 l 278 348 l 278 423 q 278 449 270 458 q 262 468 247 468 q 218 468 218 418 l 218 161 q 218 111 247 111 q 262 111 270 121 q 278 130 278 156 l 278 241 l 453 241 l 453 162 q 453 78 397 33 q 341 -11 247 -11 z"},"!":{"x_min":0,"x_max":271,"ha":271,"o":"m 99 216 l 49 807 l 227 807 l 161 216 z m 45 0 l 45 164 l 212 164 l 212 0 z"},"/":{"x_min":0,"x_max":438,"ha":438,"o":"m 47 0 l 304 810 l 390 810 l 133 0 z"},"[":{"x_min":0,"x_max":330,"ha":330,"o":"m 48 -185 l 49 810 l 309 810 l 309 745 l 182 745 l 181 -120 l 308 -120 l 308 -185 z"},"6":{"x_min":0,"x_max":548,"ha":548,"o":"m 284 120 q 293 120 300 123 q 307 126 311 134 q 315 143 318 152 q 320 161 322 178 q 323 195 323 211 q 323 227 323 254 q 323 276 323 288 q 323 300 322 316 q 320 332 318 340 q 315 348 311 356 q 306 365 299 368 q 292 371 282 371 q 268 371 256 363 q 243 354 238 345 l 238 210 q 238 184 241 165 q 245 147 255 134 q 266 120 284 120 z m 281 -13 q 221 -13 176 6 q 131 26 104 62 q 77 98 63 146 q 50 193 50 253 l 50 552 q 50 603 56 641 q 62 680 77 715 q 93 750 118 773 q 144 796 184 809 q 225 822 280 822 q 341 822 382 809 q 422 795 446 768 q 470 740 479 702 q 489 665 489 611 l 489 596 l 318 596 q 318 652 313 666 q 306 685 282 685 q 251 685 245 657 q 238 630 238 527 l 238 470 q 249 489 275 500 q 300 511 333 512 q 336 512 340 512 q 382 512 414 496 q 448 479 469 446 q 489 413 499 371 q 508 330 508 279 q 508 224 502 181 q 496 138 479 100 q 463 63 438 39 q 413 14 373 0 q 333 -13 281 -13 z"},"r":{"x_min":0,"x_max":386,"ha":386,"o":"m 52 0 l 52 578 l 231 578 l 231 478 q 283 585 343 585 q 355 585 368 580 l 368 431 q 360 432 353 431 q 280 426 231 355 l 231 0 z"},"2":{"x_min":0,"x_max":548,"ha":548,"o":"m 60 0 l 60 130 l 248 422 q 252 429 266 449 q 280 470 286 481 q 293 492 304 511 q 315 531 321 545 q 327 560 331 577 q 336 595 336 610 q 336 643 319 657 q 308 667 292 667 q 285 667 278 665 q 255 660 244 637 q 233 615 233 564 l 233 521 l 55 521 l 55 568 q 55 624 69 669 q 82 714 109 749 q 137 785 183 804 q 229 824 290 824 q 401 824 460 767 q 518 710 518 607 q 518 591 516 575 q 515 559 509 542 q 504 524 500 512 q 497 500 487 482 q 477 463 473 454 q 469 446 456 425 q 442 405 439 399 q 436 394 419 371 q 403 348 401 345 l 264 143 l 495 143 l 495 0 z"},"{":{"x_min":0,"x_max":396,"ha":396,"o":"m 362 -193 q 325 -193 295 -191 q 265 -188 241 -184 q 217 -179 199 -171 q 181 -162 168 -153 q 155 -144 146 -129 q 137 -114 131 -100 q 125 -85 122 -64 q 119 -43 118 -23 q 117 -3 117 24 l 117 86 q 117 204 107 229 q 98 253 50 253 l 50 383 q 98 383 107 408 q 117 433 117 550 l 117 612 q 117 644 118 666 q 120 688 124 710 q 128 733 135 749 q 143 764 156 778 q 168 793 187 802 q 205 811 230 818 q 255 825 288 828 q 320 831 362 831 l 362 713 q 334 713 319 710 q 304 707 294 694 q 284 681 281 660 q 278 639 278 601 l 278 530 q 278 482 275 449 q 271 417 261 388 q 251 359 233 342 q 214 325 186 318 q 214 312 233 295 q 251 278 261 249 q 271 221 275 188 q 278 154 278 107 l 278 36 q 278 -2 281 -23 q 284 -44 294 -57 q 304 -69 319 -73 q 334 -76 362 -76 z"},"9":{"x_min":0,"x_max":548,"ha":548,"o":"m 273 438 q 286 438 296 446 q 306 454 312 464 l 312 599 q 312 620 310 634 q 309 647 305 661 q 302 675 293 682 q 284 689 271 689 q 261 689 255 686 q 249 683 244 675 q 240 666 238 658 q 235 649 234 631 q 233 613 233 598 q 232 583 232 555 q 232 521 233 505 q 234 489 238 470 q 241 452 250 445 q 258 438 273 438 z m 270 -13 q 209 -13 168 0 q 127 14 104 42 q 81 69 71 107 q 62 145 62 198 l 62 213 l 233 213 q 233 194 234 185 q 234 175 235 163 q 236 150 238 145 q 241 140 245 134 q 249 128 256 126 q 262 124 271 124 q 300 124 306 148 q 312 173 312 266 q 312 276 312 282 l 312 339 q 300 319 276 309 q 251 298 219 297 q 216 297 213 297 q 170 298 138 315 q 103 335 83 370 q 63 405 53 448 q 43 491 43 542 q 43 610 56 660 q 68 711 94 748 q 121 785 165 803 q 208 822 271 822 q 501 822 501 567 l 501 257 q 501 207 495 168 q 489 129 473 94 q 458 59 432 36 q 406 13 365 0 q 324 -13 270 -13 z"}," ":{"x_min":0,"x_max":264,"ha":264,"o":""},"I":{"x_min":0,"x_max":316,"ha":316,"o":"m 59 0 l 59 810 l 257 810 l 257 0 z"},"H":{"x_min":0,"x_max":624,"ha":624,"o":"m 63 0 l 63 810 l 261 810 l 261 489 l 362 489 l 362 810 l 561 810 l 561 0 l 362 0 l 362 347 l 261 347 l 261 0 z"},"4":{"x_min":0,"x_max":548,"ha":548,"o":"m 161 305 l 283 305 l 283 639 z m 283 0 l 283 179 l 32 179 l 32 303 l 244 810 l 444 810 l 444 305 l 518 305 l 518 179 l 444 179 l 444 0 z"},"~":{"x_min":0,"x_max":491,"ha":491,"o":"m 336 324 q 312 324 276 339 q 240 354 209 368 q 178 383 164 383 q 151 383 132 370 q 112 356 97 332 l 42 405 q 62 444 94 474 q 127 504 159 504 q 184 504 219 490 q 254 475 285 460 q 316 446 329 446 q 342 446 360 460 q 379 475 396 496 l 458 435 q 441 392 406 358 q 372 324 336 324 z"},"D":{"x_min":0,"x_max":603,"ha":603,"o":"m 59 0 l 59 810 l 272 810 q 355 810 409 796 q 463 782 496 750 q 528 717 541 670 q 554 623 554 551 l 554 259 q 554 187 541 140 q 528 93 496 60 q 463 28 409 14 q 355 0 272 0 z m 257 137 l 275 137 q 301 137 316 141 q 331 145 338 156 q 346 167 348 179 q 350 192 350 216 l 350 596 q 350 619 348 632 q 346 645 338 655 q 331 665 316 669 q 301 673 275 673 l 257 673 z"},"^":{"x_min":0,"x_max":485,"ha":485,"o":"m 29 472 l 175 810 l 310 810 l 457 472 l 308 472 l 242 653 l 176 472 z"},"0":{"x_min":0,"x_max":548,"ha":548,"o":"m 275 -17 q 166 -17 107 45 q 48 107 48 213 l 48 586 q 48 696 105 760 q 162 823 275 823 q 387 823 444 760 q 501 696 501 586 l 501 213 q 501 109 441 46 q 382 -17 275 -17 z m 312 219 l 312 580 q 312 581 312 588 q 312 595 312 598 q 312 601 312 608 q 312 616 311 620 q 310 624 308 631 q 306 637 303 641 q 300 645 297 648 q 293 652 287 654 q 282 656 275 656 q 266 656 259 653 q 252 650 249 644 q 245 638 242 633 q 239 627 238 618 q 237 608 237 604 q 237 603 237 599 q 237 595 237 590 q 237 581 237 580 l 237 219 q 237 150 275 150 q 312 150 312 219 z"},"F":{"x_min":0,"x_max":447,"ha":447,"o":"m 59 0 l 59 810 l 420 810 l 420 677 l 257 677 l 257 492 l 404 492 l 404 354 l 257 354 l 257 0 z"},"`":{"x_min":0,"x_max":316,"ha":316,"o":"m 166 607 l 36 810 l 220 810 l 282 607 z"},"k":{"x_min":0,"x_max":574,"ha":574,"o":"m 50 0 l 50 810 l 227 810 l 227 370 l 365 578 l 569 578 l 410 338 l 568 0 l 369 0 l 269 269 l 227 219 l 227 0 z"},"u":{"x_min":0,"x_max":522,"ha":522,"o":"m 157 -11 q 105 -11 75 28 q 44 66 44 129 l 44 578 l 223 578 l 223 144 q 223 107 251 107 q 252 107 253 107 q 271 108 293 120 l 293 578 l 472 578 l 472 0 l 293 0 l 293 52 q 226 -11 157 -11 z"},"]":{"x_min":0,"x_max":328,"ha":328,"o":"m 21 -185 l 21 -120 l 147 -120 l 146 745 l 20 745 l 20 810 l 279 810 l 280 -185 z"},"U":{"x_min":0,"x_max":601,"ha":601,"o":"m 300 -13 q 230 -13 182 3 q 134 19 106 52 q 78 86 66 132 q 54 179 54 245 l 54 810 l 251 810 l 251 211 q 251 195 252 183 q 254 171 258 157 q 263 144 273 136 q 284 128 300 128 q 316 128 327 136 q 338 144 342 157 q 347 171 348 183 q 349 195 349 211 l 349 810 l 547 810 l 547 245 q 547 179 535 132 q 522 86 494 52 q 466 19 418 3 q 370 -13 300 -13 z"},"o":{"x_min":0,"x_max":500,"ha":500,"o":"m 249 -11 q 154 -11 96 36 q 38 82 38 172 l 38 406 q 38 496 96 542 q 154 589 249 589 q 345 589 404 542 q 462 496 462 406 l 462 172 q 462 126 446 91 q 430 56 401 34 q 372 12 334 0 q 295 -11 249 -11 z m 250 106 q 268 106 277 119 q 286 131 286 159 l 286 419 q 286 447 277 459 q 268 472 250 472 q 214 472 214 419 l 214 159 q 214 106 250 106 z"},"N":{"x_min":0,"x_max":570,"ha":570,"o":"m 59 0 l 59 810 l 199 810 l 347 463 l 347 810 l 511 810 l 511 0 l 375 0 l 229 381 l 229 0 z"},"+":{"x_min":0,"x_max":458,"ha":458,"o":"m 171 206 l 171 365 l 26 365 l 26 464 l 171 464 l 171 618 l 287 618 l 287 464 l 432 464 l 432 365 l 287 365 l 287 206 z"},"G":{"x_min":0,"x_max":595,"ha":595,"o":"m 275 -13 q 212 -13 167 8 q 123 28 97 67 q 72 105 60 155 q 49 204 49 269 l 49 541 q 49 607 62 657 q 75 707 103 745 q 132 783 181 802 q 230 822 300 822 q 355 822 397 810 q 439 798 467 778 q 494 757 512 727 q 529 696 537 662 q 544 627 544 585 l 544 527 l 349 527 l 349 604 q 349 618 349 627 q 348 635 346 648 q 343 660 339 667 q 334 674 325 680 q 315 685 302 685 q 286 685 275 678 q 265 670 260 657 q 255 644 254 632 q 252 620 252 604 l 252 207 q 252 191 255 178 q 257 166 263 153 q 269 140 280 133 q 292 125 308 125 q 329 125 343 139 q 356 152 361 170 q 366 187 366 207 l 366 312 l 301 312 l 301 426 l 544 426 l 544 0 l 412 0 l 402 59 q 366 -13 275 -13 z"},"q":{"x_min":0,"x_max":522,"ha":522,"o":"m 257 99 q 270 99 295 114 l 295 471 q 273 482 259 482 q 241 482 231 469 q 221 457 221 436 l 221 140 q 221 123 231 111 q 241 99 257 99 z m 295 -190 l 295 51 q 232 -11 172 -11 q 110 -11 75 31 q 41 74 41 151 l 41 427 q 41 501 77 545 q 112 589 173 589 q 238 589 295 539 l 295 578 l 474 578 l 474 -190 z"},"d":{"x_min":0,"x_max":521,"ha":521,"o":"m 256 99 q 271 99 292 112 l 292 473 q 275 482 258 482 q 241 482 231 469 q 222 457 222 436 l 222 140 q 222 123 231 111 q 241 99 256 99 z m 172 -11 q 111 -11 76 31 q 42 74 42 151 l 42 427 q 42 501 78 545 q 113 589 174 589 q 237 589 292 542 l 292 810 l 472 810 l 472 0 l 292 0 l 292 47 q 233 -11 172 -11 z"},"1":{"x_min":0,"x_max":548,"ha":548,"o":"m 203 0 l 203 638 l 101 583 l 101 720 q 105 723 129 737 q 153 751 172 763 q 192 775 213 789 q 234 803 242 810 l 388 810 l 388 0 z"},"5":{"x_min":0,"x_max":548,"ha":548,"o":"m 278 -17 q 223 -17 184 -4 q 145 9 121 30 q 98 50 84 85 q 70 119 66 155 q 62 190 62 240 l 239 240 q 239 189 243 163 q 248 137 259 127 q 269 118 286 118 q 289 118 292 118 q 320 120 327 155 q 334 189 334 280 q 334 309 332 331 q 330 352 324 371 q 318 390 307 400 q 296 410 279 410 q 255 410 242 392 q 228 375 223 334 l 63 334 l 82 810 l 469 810 l 469 661 l 227 661 l 217 510 q 225 521 251 532 q 278 542 310 546 q 324 548 337 548 q 410 548 454 489 q 505 420 505 282 q 505 242 503 210 q 501 179 495 146 q 489 114 478 91 q 468 67 451 46 q 434 25 410 12 q 386 -1 353 -9 q 320 -17 278 -17 z"}}}
